<svg xmlns="http://www.w3.org/2000/svg" xmlns:xlink="http://www.w3.org/1999/xlink" width="500" zoomAndPan="magnify" viewBox="0 0 375 374.999991" height="500" preserveAspectRatio="xMidYMid meet" version="1.0"><defs><g/></defs><g fill="#fff559" fill-opacity="1"><g transform="translate(21.541071, 270.245731)"><g><path d="M 163.601562 -3.125 L 84.40625 -206.847656 C 83.625 -208.933594 79.976562 -208.933594 79.195312 -206.847656 L 0.261719 -3.125 C -0.519531 -1.5625 0.519531 0 2.867188 0 L 38.554688 0 C 39.597656 0 40.902344 -0.519531 41.160156 -1.5625 L 81.800781 -117.753906 L 122.960938 -1.5625 C 123.222656 -0.519531 124.527344 0 125.308594 0 L 161.257812 0 C 163.082031 0 164.382812 -1.5625 163.601562 -3.125 Z M 163.601562 -3.125 "/></g></g></g><g fill="#fff559" fill-opacity="1"><g transform="translate(179.821899, 270.245731)"><g><path d="M 166.207031 -3.90625 L 82.582031 -102.382812 L 165.425781 -204.503906 C 167.25 -206.328125 165.945312 -208.410156 163.082031 -208.410156 L 120.617188 -208.410156 C 120.097656 -208.410156 118.535156 -207.890625 118.273438 -207.628906 L 39.859375 -111.238281 L 39.859375 -206.066406 C 39.859375 -207.109375 38.816406 -208.410156 37.253906 -208.410156 L 2.867188 -208.410156 C 1.300781 -208.410156 0 -207.109375 0 -206.066406 L 0 -12.765625 C 0 -12.765625 50.800781 -70.339844 56.011719 -75.808594 L 116.710938 -0.78125 C 116.96875 -0.519531 118.535156 0 119.054688 0 L 163.863281 0 C 166.46875 0 167.769531 -1.824219 166.207031 -3.90625 Z M 166.207031 -3.90625 "/></g></g></g><g fill="#ffffff" fill-opacity="1"><g transform="translate(23.254335, 315.386113)"><g><path d="M 16.46875 -4.0625 L 6.4375 -4.0625 L 4.953125 0 L -0.6875 0 L 11.203125 -28.5625 L 11.59375 -28.5625 L 23.53125 0 L 18.046875 0 Z M 14.984375 -7.96875 L 12.046875 -15.625 L 11.359375 -17.890625 L 10.71875 -15.625 L 7.890625 -7.96875 Z M 14.984375 -7.96875 "/></g></g></g><g fill="#ffffff" fill-opacity="1"><g transform="translate(55.349829, 315.386113)"><g><path d="M 17.5625 0 L 8.5 -13.46875 L 8.5 0 L 3.390625 0 L 3.390625 -28.078125 L 8.5 -28.078125 L 8.5 -14.09375 L 17.4375 -28.078125 L 23.359375 -28.078125 L 13.796875 -14.140625 L 24 0 Z M 17.5625 0 "/></g></g></g><g fill="#ffffff" fill-opacity="1"><g transform="translate(88.613021, 315.386113)"><g><path d="M 23.078125 -28.078125 L 23.078125 0 L 17.84375 0 L 17.84375 -11.921875 L 8.578125 -11.921875 L 8.578125 0 L 3.390625 0 L 3.390625 -28.078125 L 8.578125 -28.078125 L 8.578125 -16.359375 L 17.84375 -16.359375 L 17.84375 -28.078125 Z M 23.078125 -28.078125 "/></g></g></g><g fill="#ffffff" fill-opacity="1"><g transform="translate(124.332426, 315.386113)"><g><path d="M 3.265625 -28.078125 L 8.421875 -28.078125 L 8.421875 0 L 3.265625 0 Z M 3.265625 -28.078125 "/></g></g></g><g fill="#ffffff" fill-opacity="1"><g transform="translate(145.274323, 315.386113)"><g><path d="M 16.875 -4.4375 L 16.875 0 L 3.390625 0 L 3.390625 -28.078125 L 8.5 -28.078125 L 8.5 -4.4375 Z M 16.875 -4.4375 "/></g></g></g><g fill="#ffffff" fill-opacity="1"><g transform="translate(172.457404, 315.386113)"><g/></g></g><g fill="#ffffff" fill-opacity="1"><g transform="translate(189.372732, 315.386113)"><g><path d="M 17.5625 0 L 8.5 -13.46875 L 8.5 0 L 3.390625 0 L 3.390625 -28.078125 L 8.5 -28.078125 L 8.5 -14.09375 L 17.4375 -28.078125 L 23.359375 -28.078125 L 13.796875 -14.140625 L 24 0 Z M 17.5625 0 "/></g></g></g><g fill="#ffffff" fill-opacity="1"><g transform="translate(222.635921, 315.386113)"><g><path d="M 12.640625 0.53125 C 9.597656 0.53125 7.171875 -0.285156 5.359375 -1.921875 C 3.554688 -3.554688 2.65625 -6.257812 2.65625 -10.03125 L 2.65625 -28.078125 L 7.890625 -28.078125 L 7.890625 -9.46875 C 7.890625 -7.34375 8.351562 -5.875 9.28125 -5.0625 C 10.21875 -4.257812 11.3125 -3.859375 12.5625 -3.859375 C 13.832031 -3.859375 14.910156 -4.253906 15.796875 -5.046875 C 16.679688 -5.847656 17.125 -7.320312 17.125 -9.46875 L 17.125 -28.078125 L 22.359375 -28.078125 L 22.359375 -10.03125 C 22.359375 -6.257812 21.476562 -3.554688 19.71875 -1.921875 C 17.957031 -0.285156 15.597656 0.53125 12.640625 0.53125 Z M 12.640625 0.53125 "/></g></g></g><g fill="#ffffff" fill-opacity="1"><g transform="translate(256.905755, 315.386113)"><g><path d="M 26.875 -28.5625 L 26.875 0 L 21.875 0 L 21.875 -12.046875 L 22.046875 -16.796875 L 20.625 -14.625 L 15.109375 -8.140625 L 9.59375 -14.625 L 8.15625 -16.796875 L 8.375 -12.046875 L 8.375 0 L 3.390625 0 L 3.390625 -28.5625 L 3.78125 -28.5625 L 15.140625 -15.171875 L 26.421875 -28.5625 Z M 26.875 -28.5625 "/></g></g></g><g fill="#ffffff" fill-opacity="1"><g transform="translate(296.41014, 315.386113)"><g><path d="M 16.46875 -4.0625 L 6.4375 -4.0625 L 4.953125 0 L -0.6875 0 L 11.203125 -28.5625 L 11.59375 -28.5625 L 23.53125 0 L 18.046875 0 Z M 14.984375 -7.96875 L 12.046875 -15.625 L 11.359375 -17.890625 L 10.71875 -15.625 L 7.890625 -7.96875 Z M 14.984375 -7.96875 "/></g></g></g><g fill="#ffffff" fill-opacity="1"><g transform="translate(328.505642, 315.386113)"><g><path d="M 15.703125 0 L 8.5 -10.15625 L 8.5 0 L 3.390625 0 L 3.390625 -28.078125 L 11.203125 -28.078125 C 17.859375 -28.078125 21.1875 -25.097656 21.1875 -19.140625 C 21.1875 -17.804688 20.972656 -16.5 20.546875 -15.21875 C 20.117188 -13.9375 19.414062 -12.796875 18.4375 -11.796875 C 17.46875 -10.804688 16.222656 -10.125 14.703125 -9.75 L 21.953125 0 Z M 10.640625 -12.6875 C 11.773438 -12.6875 12.75 -12.957031 13.5625 -13.5 C 14.375 -14.039062 14.988281 -14.765625 15.40625 -15.671875 C 15.820312 -16.578125 16.03125 -17.570312 16.03125 -18.65625 C 16.03125 -20.5 15.601562 -21.859375 14.75 -22.734375 C 13.894531 -23.609375 12.484375 -24.046875 10.515625 -24.046875 L 8.5 -24.046875 L 8.5 -12.6875 Z M 10.640625 -12.6875 "/></g></g></g></svg>